<svg width="284" height="284" viewBox="0 0 284 284" fill="none" xmlns="http://www.w3.org/2000/svg">
<g clip-path="url(#clip0_12_2)">
<path fill-rule="evenodd" clip-rule="evenodd" d="M94.3533 95.9637V272.653C94.3533 278.813 89.1661 284 83.0063 284H23.0292C16.8693 284 11.6821 278.813 11.6821 272.653V130.653C11.6821 126.763 13.9515 122.872 17.1935 120.927L57.3944 97.9089L77.4948 86.2377C84.9515 81.6989 94.3533 87.2103 94.3533 95.9637Z" fill="#0E8CFC"/>
<path fill-rule="evenodd" clip-rule="evenodd" d="M273.636 81.0502V181.552C273.636 183.173 272.988 184.47 271.691 185.443L195.18 234.073C192.586 235.694 189.02 235.694 186.426 234.073L127.746 196.79C122.234 193.224 122.234 185.119 127.746 181.552L194.531 138.758C200.043 135.192 200.043 127.087 194.531 123.52L103.755 65.8127L12.9789 8.10502C9.41265 5.83561 11.0337 0 14.9241 0H147.522C149.143 0 150.44 0.324181 151.737 1.29678L270.718 77.1597C272.988 78.1323 273.636 79.4292 273.636 81.0502Z" fill="#0E8CFC"/>
</g>
<defs>
<clipPath id="clip0_12_2">
<rect width="283.5" height="283.5" fill="white"/>
</clipPath>
</defs>
</svg>
